# xmcd
#
# Track frame offsets:
#        150
#        19650
#        34446
#        50948
#        69399
#        88555
#        118341
#        135270
#        155314
#        180928
#        198782
#
# Disc length: 2866 seconds
#
# Revision: 0
# Processed by: cddbd v1.5.2PL0 Copyright (c) Steve Scherf et al.
# Submitted via: Mozilla Thunderbird 15.0.1
#
DISCID=8d0b300b
DTITLE=Planta Cadaver - Ultimo Acto
DYEAR=2000
DGENRE=Brutal Death Metal
TTITLE0=Ultimo Acto
TTITLE1=Confuso Dolor
TTITLE2=Acoso de Ideas (Desorden Perceptual)
TTITLE3=El Ocaso
TTITLE4=Anhedonia
TTITLE5=Miseria
TTITLE6=Inmortalidad
TTITLE7=El Silencio de Un Inocente
TTITLE8=A Mi Memoria
TTITLE9=Ansiedad
TTITLE10=Mi Cadaver
EXTD=
EXTT0=
EXTT1=
EXTT2=
EXTT3=
EXTT4=
EXTT5=
EXTT6=
EXTT7=
EXTT8=
EXTT9=
EXTT10=
PLAYORDER=
